<svg xmlns="http://www.w3.org/2000/svg" xmlns:xlink="http://www.w3.org/1999/xlink" version="1.1" width="28" height="28"
    viewBox="0 0 28 28">
    <g>
        <g style="opacity:0;mix-blend-mode:passthrough">
            <rect x="0" y="0" width="28" height="28" rx="0" fill-opacity="1" />
        </g>
        <g>
            <g style="mix-blend-mode:passthrough">
                <path
                    d="M9.15,25C7.41425,25,6,23.59289,6,21.85714L6,21C6,17.13401,9.13401,14,13,14C16.866,14,20,17.13401,20,21L20,21.85714C20,23.59289,18.5858,25,16.85,25L13,25L9.15,25ZM8.33609,22.66305Q8,22.32801,8,21.85714L8,21Q8,18.92893,9.46447,17.46447Q10.928930000000001,16,13,16Q15.07107,16,16.5355,17.46447Q18,18.92893,18,21L18,21.85714Q18,22.32801,17.663899999999998,22.66305Q17.3259,23,16.85,22.99999L13,22.99999L9.15,22.99999Q8.67409,23,8.33609,22.66305Z"
                    fill-rule="evenodd" fill-opacity="1" />
            </g>
            <g style="mix-blend-mode:passthrough">
                <path
                    d="M12.95593,3.000194197Q12.83388,3.00126992,12.71203,3.00829946Q12.59018,3.015329,12.468820000000001,3.0282956Q12.34745,3.0412622,12.22687,3.0601351Q12.10628,3.0790079,11.98676,3.103742Q11.867239999999999,3.128476,11.74906,3.159012Q11.63089,3.189549,11.51435,3.225815Q11.39781,3.2620810000000002,11.28318,3.3039899999999998Q11.16854,3.345899,11.056090000000001,3.393351Q10.94364,3.440804,10.83363,3.493686Q10.72363,3.546569,10.616340000000001,3.604756Q10.50905,3.662943,10.404720000000001,3.726296Q10.3004,3.789649,10.19929,3.858016Q10.09818,3.926384,10.00053,3.999604Q9.90288,4.07282,9.808910000000001,4.15072Q9.71495,4.22862,9.6249,4.31101Q9.534839999999999,4.3934,9.44892,4.48008Q9.363,4.56677,9.2814,4.65754Q9.19981,4.74831,9.12275,4.84296Q9.04568,4.93761,8.973323,5.0359Q8.900967,5.1342,8.833494,5.2359Q8.76602,5.33761,8.703589000000001,5.442489999999999Q8.641158,5.54737,8.583919,5.65517Q8.526679,5.76297,8.474768,5.87344Q8.422857,5.9839,8.376397,6.096769999999999Q8.329938,6.209630000000001,8.289041,6.32463Q8.248144,6.43963,8.212906,6.55649Q8.177669,6.67334,8.148175,6.79178Q8.118682,6.91022,8.0950019,7.02995Q8.071322200000001,7.14969,8.0535129,7.27043Q8.0357036,7.39118,8.0238072,7.51266Q8.0119107,7.63413,8.00595534,7.75604Q8,7.87795,8,8Q8,8.12274,8.00602272,8.245339999999999Q8.0120454,8.367930000000001,8.0240764,8.490079999999999Q8.0361073,8.61224,8.0541174,8.73365Q8.0721276,8.855070000000001,8.0960736,8.97545Q8.12002,9.095839999999999,8.149844,9.2149Q8.179668,9.333960000000001,8.215298,9.451419999999999Q8.250929,9.56888,8.29228,9.68445Q8.333631,9.80001,8.380602,9.913409999999999Q8.427574,10.026810000000001,8.480053,10.13777Q8.532533,10.24873,8.590394,10.35698Q8.648254,10.46523,8.711357,10.570509999999999Q8.774459,10.67579,8.842652,10.77785Q8.910844,10.879909999999999,8.983962,10.97849Q9.05708,11.07708,9.13495,11.17196Q9.21282,11.26685,9.29524,11.35779Q9.37767,11.44874,9.46447,11.53553Q9.55126,11.62232,9.6422,11.70475Q9.73315,11.78718,9.82803,11.86505Q9.92291,11.94292,10.0215,12.01604Q10.12009,12.08915,10.22215,12.15735Q10.32421,12.22554,10.42949,12.28864Q10.53477,12.35174,10.64302,12.40961Q10.75127,12.46747,10.86222,12.51994Q10.97318,12.57242,11.08658,12.6194Q11.19998,12.66637,11.31555,12.70772Q11.43112,12.74907,11.54858,12.7847Q11.66603,12.82033,11.7851,12.85015Q11.904160000000001,12.87998,12.02455,12.90392Q12.144929999999999,12.92787,12.26635,12.94588Q12.38776,12.96389,12.50991,12.97592Q12.632069999999999,12.98795,12.754660000000001,12.99398Q12.87726,13,13,13Q13.12274,13,13.245339999999999,12.99398Q13.367930000000001,12.98795,13.49009,12.97592Q13.61224,12.96389,13.73365,12.94588Q13.855070000000001,12.92787,13.97545,12.90392Q14.095839999999999,12.87998,14.2149,12.85015Q14.333960000000001,12.82033,14.451419999999999,12.7847Q14.56888,12.74907,14.68445,12.70772Q14.80002,12.66637,14.91342,12.6194Q15.02682,12.57242,15.13777,12.51995Q15.24873,12.46747,15.35698,12.40961Q15.46523,12.35174,15.570509999999999,12.28864Q15.67579,12.22554,15.77785,12.15735Q15.879909999999999,12.08915,15.9785,12.01604Q16.077080000000002,11.94292,16.17197,11.86505Q16.266849999999998,11.78718,16.35779,11.70475Q16.44874,11.62232,16.53553,11.53553Q16.622320000000002,11.44874,16.70475,11.35779Q16.78718,11.26685,16.86505,11.17196Q16.94292,11.07708,17.01604,10.97849Q17.08915,10.879909999999999,17.15735,10.77785Q17.225540000000002,10.67579,17.28864,10.570509999999999Q17.35174,10.46523,17.40961,10.35698Q17.46747,10.24873,17.51995,10.13777Q17.57242,10.026810000000001,17.6194,9.913409999999999Q17.66637,9.80001,17.707720000000002,9.68445Q17.74907,9.56888,17.7847,9.451419999999999Q17.82033,9.333960000000001,17.85015,9.2149Q17.87998,9.095839999999999,17.90392,8.97545Q17.92787,8.855070000000001,17.945880000000002,8.73365Q17.96389,8.61224,17.975920000000002,8.49009Q17.987949999999998,8.367930000000001,17.99398,8.245339999999999Q18,8.12274,18,8Q18,7.835,17.98912,7.67037L17.98912,5C17.98912,3.895431,17.093690000000002,3,15.98912,3L13.04407,3L13.04407,3.000194197Q13.02203,3,13,3Q12.97797,3,12.95593,3.000194197ZM15.04407,5L15.04407,5.0139700000000005L13.01083,5.00001L12.995090000000001,4.99999Q11.75736,5,10.87868,5.87868Q10,6.75736,10,8Q10,9.24264,10.87868,10.12132Q11.75736,11,13,11Q14.24264,11,15.12132,10.12132Q16,9.24264,16,8Q16,7.901,15.99347,7.80222L15.98912,7.73636L15.98912,5L15.04407,5Z"
                    fill-rule="evenodd" fill-opacity="1" />
            </g>
            <g style="mix-blend-mode:passthrough"
                transform="matrix(0.7071067690849304,-0.7071067690849304,0.7071067690849304,0.7071067690849304,-9.677668078684746,13.949747101521552)">
                <g style="mix-blend-mode:passthrough">
                    <path
                        d="M14.00024402141571,21.66478638595581L19.00036402141571,21.66478638595581C19.552654021415712,21.66478638595581,20.000364021415713,22.11250638595581,20.000364021415713,22.66478638595581C20.000364021415713,23.21707638595581,19.552654021415712,23.66478638595581,19.00036402141571,23.66478638595581L13.00036402141571,23.66478638595581C12.452141021415711,23.66478638595581,12.00695236141571,23.22362638595581,12.00043943141571,22.67694638595581C12.000309359615711,22.67030638595581,12.00024402141571,22.66364638595581,12.00024402141571,22.65697638595581L12.00024402141571,19.65697438595581C12.00024402141571,19.10469038595581,12.447959021415711,18.65697479295581,13.00024402141571,18.65697479295581C13.55252402141571,18.65697479295581,14.00024402141571,19.10469038595581,14.00024402141571,19.65697438595581L14.00024402141571,21.66478638595581Z"
                        fill-rule="evenodd" fill-opacity="1" />
                    <path
                        d="M19.00036402141571,20.66478638595581L15.00024402141571,20.66478638595581L15.00024402141571,19.65697438595581Q15.00024402141571,18.82854738595581,14.414454021415711,18.24276138595581Q13.828674021415711,17.65697638595581,13.00024402141571,17.65697638595581Q12.17181702141571,17.65697638595581,11.58603102141571,18.24276138595581Q11.00024402141571,18.82854738595581,11.00024402141571,19.65697438595581L11.00024402141571,22.65697638595581Q11.00024402141571,22.676756385955812,11.00051002141571,22.68885638595581Q11.01028902141571,23.50959638595581,11.59412902141571,24.08692638595581Q12.17850002141571,24.66478638595581,13.00036402141571,24.66478638595581L19.00036402141571,24.66478638595581Q19.82879402141571,24.66478638595581,20.41458402141571,24.07899638595581Q21.000364021415713,23.49321638595581,21.000364021415713,22.66478638595581Q21.000364021415713,21.83635638595581,20.41458402141571,21.25057638595581Q19.82879402141571,20.66478638595581,19.00036402141571,20.66478638595581ZM15.00024402141571,21.66478638595581L14.00024402141571,21.66478638595581L14.00024402141571,19.65697438595581C14.00024402141571,19.10469038595581,13.55252402141571,18.65697479295581,13.00024402141571,18.65697479295581C12.447959021415711,18.65697479295581,12.00024402141571,19.10469038595581,12.00024402141571,19.65697438595581L12.00024402141571,22.65697638595581C12.00024402141571,22.66364638595581,12.000309359615711,22.67030638595581,12.00043943141571,22.67694638595581C12.00695236141571,23.22362638595581,12.452141021415711,23.66478638595581,13.00036402141571,23.66478638595581L19.00036402141571,23.66478638595581C19.552654021415712,23.66478638595581,20.000364021415713,23.21707638595581,20.000364021415713,22.66478638595581C20.000364021415713,22.11250638595581,19.552654021415712,21.66478638595581,19.00036402141571,21.66478638595581L15.00024402141571,21.66478638595581Z"
                        fill-rule="evenodd" fill="#FBFCFB" fill-opacity="1" />
                </g>
            </g>
        </g>
    </g>
</svg>