<svg xmlns="http://www.w3.org/2000/svg" xmlns:xlink="http://www.w3.org/1999/xlink" version="1.1" width="25" height="27"
    viewBox="0 0 25 27">
    <g style="mix-blend-mode:passthrough">
        <g style="mix-blend-mode:passthrough">
            <path
                d="M19.6923,10.5Q19.6923,12.2623,19.9172,14.0246C21.6535,14.2308,23,15.7082,23,17.5C23,19.433,21.433,21,19.5,21L16.972099999999998,21Q16.9493,21.2041,16.908,21.4053Q16.8667,21.6065,16.8072,21.803Q16.747700000000002,21.9996,16.6706,22.19Q16.5935,22.3803,16.499299999999998,22.5628Q16.4052,22.7454,16.294800000000002,22.9186Q16.1844,23.0918,16.0587,23.2542Q15.933,23.4166,15.7931,23.5669Q15.6531,23.7172,15.5,23.8541Q15.3469,23.991,15.182,24.1134Q15.0171,24.2358,14.8417,24.3427Q14.6663,24.4496,14.4819,24.54Q14.2976,24.6305,14.1057,24.7038Q13.9138,24.7771,13.7161,24.8326Q13.5184,24.8881,13.3164,24.9253Q13.1144,24.9626,12.9099,24.9813Q12.7054,25,12.5,25Q12.2946,25,12.0901,24.9813Q11.88557,24.9626,11.6836,24.9253Q11.48163,24.8881,11.2839,24.8326Q11.08616,24.7771,10.8943,24.7038Q10.70244,24.6305,10.51806,24.54Q10.33367,24.4496,10.15829,24.3427Q9.98291,24.2358,9.818,24.1134Q9.65308,23.991,9.5,23.8541Q9.34692,23.7172,9.206949999999999,23.5669Q9.066980000000001,23.4166,8.941279999999999,23.2542Q8.81558,23.0918,8.70519,22.9186Q8.594809999999999,22.7454,8.50067,22.5628Q8.40652,22.3803,8.32939,22.19Q8.25226,21.9996,8.192789999999999,21.803Q8.133320000000001,21.6065,8.091999999999999,21.4053Q8.05068,21.2041,8.02786,21L5.5,21C3.567,21,2,19.433,2,17.5C2,15.8364,3.1606899999999998,14.4438,4.71645,14.088Q4.87179,12.294,4.87179,10.5L4.87179,9.38027C4.87179,5.28769,8.18948,2,12.2821,2C16.3746,2,19.6923,5.30243,19.6923,9.395L19.6923,10.5Z"
                fill-rule="evenodd" fill="#FFFFFF" fill-opacity="1" />
            <path
                d="M21.7685,12.4762Q21.6923,11.48791,21.6923,10.5L21.6923,9.395Q21.6923,7.48137,20.9515,5.732810000000001Q20.2367,4.045450000000001,18.9341,2.746559Q17.6326,1.448779,15.943,0.73688Q14.1942,0,12.2821,0Q10.37091,0,8.6235,0.7335499999999999Q6.93348,1.443009,5.63197,2.737246Q4.32826,4.033659999999999,3.61301,5.71934Q2.871795,7.46621,2.871795,9.38027L2.871795,10.5Q2.871795,11.59582,2.810892,12.6918Q1.9066641,13.1947,1.218396,14.0476Q0,15.5574,0,17.5Q0,19.7782,1.610913,21.3891Q3.2218299999999997,23,5.5,23L6.48536,23Q7.02783,24.3262,8.16667,25.3448Q10.01722,27,12.5,27Q14.9828,27,16.8333,25.3448Q17.9722,24.3262,18.5146,23L19.5,23Q21.7782,23,23.3891,21.3891Q25,19.7782,25,17.5Q25,15.3993,23.6005,13.8344Q22.7973,12.9363,21.7685,12.4762ZM19.9172,14.0246Q19.6923,12.2623,19.6923,10.5L19.6923,9.395C19.6923,5.30243,16.3746,2,12.2821,2C8.18948,2,4.87179,5.28769,4.87179,9.38027L4.87179,10.5Q4.87179,12.294,4.71645,14.088C3.1606899999999998,14.4438,2,15.8364,2,17.5C2,19.433,3.567,21,5.5,21L8.02786,21Q8.05068,21.2041,8.091999999999999,21.4053Q8.133320000000001,21.6065,8.192789999999999,21.803Q8.25226,21.9996,8.32939,22.19Q8.40652,22.3803,8.50066,22.5628Q8.594809999999999,22.7454,8.70519,22.9186Q8.81558,23.0918,8.941279999999999,23.2542Q9.066980000000001,23.4166,9.206949999999999,23.5669Q9.34692,23.7172,9.5,23.8541Q9.65308,23.991,9.818,24.1134Q9.98291,24.2358,10.15829,24.3427Q10.33367,24.4496,10.51806,24.54Q10.70244,24.6305,10.8943,24.7038Q11.08616,24.7771,11.2839,24.8326Q11.48163,24.8881,11.6836,24.9253Q11.88557,24.9626,12.0901,24.9813Q12.2946,25,12.5,25Q12.7054,25,12.9099,24.9813Q13.1144,24.9626,13.3164,24.9253Q13.5184,24.8881,13.7161,24.8326Q13.9138,24.7771,14.1057,24.7038Q14.2976,24.6305,14.4819,24.54Q14.6663,24.4496,14.8417,24.3427Q15.0171,24.2358,15.182,24.1134Q15.3469,23.991,15.5,23.8541Q15.6531,23.7172,15.7931,23.5669Q15.933,23.4166,16.0587,23.2542Q16.1844,23.0918,16.294800000000002,22.9186Q16.4052,22.7454,16.499299999999998,22.5628Q16.5935,22.3803,16.6706,22.19Q16.747700000000002,21.9996,16.8072,21.803Q16.8667,21.6065,16.908,21.4053Q16.9493,21.2041,16.972099999999998,21L19.5,21C21.433,21,23,19.433,23,17.5C23,15.7082,21.6535,14.2308,19.9172,14.0246Z"
                fill-rule="evenodd" fill-opacity="1" />
        </g>
        <g style="mix-blend-mode:passthrough">
            <ellipse cx="12.5" cy="20.5" rx="4.5" ry="4.5" fill="#FFFFFF" fill-opacity="1" />
            <ellipse cx="12.5" cy="20.5" rx="3.5" ry="3.5" fill-opacity="0" stroke-opacity="1" stroke="#2D3A2F"
                fill="none" stroke-width="2" />
        </g>
        <g style="mix-blend-mode:passthrough">
            <path
                d="M19.9172,14.0246Q19.6923,12.2623,19.6923,10.5L19.6923,9.395C19.6923,5.30243,16.3746,2,12.2821,2C8.18948,2,4.87179,5.28769,4.87179,9.38027L4.87179,10.5Q4.87179,12.294,4.71645,14.088C3.1606899999999998,14.4438,2,15.8364,2,17.5C2,19.433,3.567,21,5.5,21L19.5,21C21.433,21,23,19.433,23,17.5C23,15.7082,21.6535,14.2308,19.9172,14.0246Z"
                fill-rule="evenodd" fill="#FFFFFF" fill-opacity="1" />
            <path
                d="M19.9172,14.0246Q19.6923,12.2623,19.6923,10.5L19.6923,9.395C19.6923,5.30243,16.3746,2,12.2821,2C8.18948,2,4.87179,5.28769,4.87179,9.38027L4.87179,10.5Q4.87179,12.294,4.71645,14.088C3.1606899999999998,14.4438,2,15.8364,2,17.5C2,19.433,3.567,21,5.5,21L19.5,21C21.433,21,23,19.433,23,17.5C23,15.7082,21.6535,14.2308,19.9172,14.0246ZM17.6923,10.5Q17.6923,12.3894,17.9332,14.2777Q17.9543,14.4425,18.0022,14.6015Q18.0501,14.7605,18.1236,14.9095Q18.1971,15.0584,18.2941,15.1932Q18.3912,15.328,18.5091,15.445Q18.6271,15.5619,18.7627,15.6578Q18.8983,15.7536,19.0479,15.8258Q19.1975,15.898,19.3569,15.9445Q19.5164,15.9911,19.6813,16.0106Q20.2398,16.076999999999998,20.6189,16.5009Q21,16.9271,21,17.5Q21,18.1213,20.5607,18.5607Q20.1213,19,19.5,19L5.5,19Q4.87868,19,4.43934,18.5607Q4,18.1213,4,17.5Q4,16.970100000000002,4.33124,16.5596Q4.65961,16.1527,5.16234,16.0377Q5.31614,16.002499999999998,5.46253,15.9437Q5.60891,15.8848,5.744260000000001,15.8037Q5.87961,15.7227,6.00057,15.6214Q6.12153,15.5201,6.22511,15.401Q6.32868,15.282,6.41232,15.1482Q6.49596,15.0145,6.55758,14.8692Q6.61921,14.724,6.6573,14.5709Q6.69538,14.4178,6.709,14.2606Q6.87179,12.3805,6.87179,10.5L6.87179,9.38027Q6.87179,7.14541,8.452449999999999,5.573589999999999Q10.03489,4,12.282,4Q14.5262,4,16.1097,5.57901Q17.6923,7.15712,17.6923,9.395L17.6923,10.5Z"
                fill-rule="evenodd" fill="#2D3A2F" fill-opacity="1" />
        </g>
    </g>
</svg>