<svg xmlns="http://www.w3.org/2000/svg" xmlns:xlink="http://www.w3.org/1999/xlink" version="1.1" width="22" height="21"
    viewBox="0 0 22 21">
    <g style="mix-blend-mode:passthrough">
        <g style="mix-blend-mode:passthrough">
            <rect x="1" y="3" width="16" height="17" rx="3" fill-opacity="0" stroke-opacity="1" stroke-width="2" />
        </g>
        <g style="mix-blend-mode:passthrough" transform="matrix(-1,0,0,-1,22,20)">
            <rect x="11" y="10" width="7" height="2" rx="1" fill-opacity="1" />
        </g>
        <g style="mix-blend-mode:passthrough" transform="matrix(-1,0,0,-1,18,28)">
            <rect x="9" y="14" width="5" height="2" rx="1" fill-opacity="1" />
        </g>
        <g style="mix-blend-mode:passthrough" transform="matrix(-1,0,0,-1,24,8)">
            <rect x="12" y="4" width="6" height="2" rx="1" fill="#FFFFFF" fill-opacity="1" />
            <rect x="11" y="3" width="8" height="4" rx="2" fill-opacity="0" stroke-opacity="1" fill="none"
                stroke-width="2" />
        </g>
        <g style="mix-blend-mode:passthrough">
            <ellipse cx="17" cy="8" rx="2" ry="2" fill="#FFFFFF" fill-opacity="1" />
        </g>
        <g style="mix-blend-mode:passthrough">
            <path
                d="M19.7076928125,7.97182Q19.7147028125,8.07671,19.7147028125,8.18182Q19.7147028125,8.33813,19.6992228125,8.49369Q19.6837528125,8.64925,19.6529428125,8.80256Q19.6221328125,8.95587,19.5762928125,9.105450000000001Q19.530462812499998,9.25503,19.4700328125,9.39945Q19.4096028125,9.543859999999999,19.335162812500002,9.68172Q19.2607328125,9.819569999999999,19.173002812500002,9.949539999999999Q19.0852728125,10.079509999999999,18.9850928125,10.20034Q18.8849228125,10.32117,18.7732628125,10.4317Q18.6616028125,10.54223,18.5395428125,10.6414Q18.4174728125,10.74056,18.2861828125,10.8274Q18.1548828125,10.91425,18.0156228125,10.98793Q17.8763628125,11.06162,17.7304728125,11.12143Q17.5845828125,11.18125,17.4334728125,11.22663Q17.2823628125,11.272,17.1274928125,11.3025Q16.9726228125,11.332989999999999,16.8154728125,11.348320000000001Q16.6583228125,11.36364,16.5004228125,11.36364Q16.3425128125,11.36364,16.1853628125,11.348320000000001Q16.0282128125,11.332989999999999,15.873342812499999,11.3025Q15.7184728125,11.272,15.5673628125,11.22663Q15.4162528125,11.18125,15.2703628125,11.12143Q15.1244728125,11.06162,14.9852128125,10.98793Q14.8459528125,10.91425,14.7146528125,10.8274Q14.5833628125,10.74056,14.4612928125,10.6414Q14.3392328125,10.54223,14.2275748125,10.4317Q14.1159178125,10.32117,14.0157418125,10.20034Q13.9155668125,10.079509999999999,13.8278378125,9.949539999999999Q13.7401088125,9.819569999999999,13.6656718125,9.68172Q13.5912348125,9.543859999999999,13.5308058125,9.39945Q13.4703768125,9.25503,13.4245388125,9.105450000000001Q13.3787007125,8.95587,13.3478944125,8.80256Q13.3170881125,8.64925,13.3016105125,8.49369Q13.2861328125,8.33813,13.2861328125,8.18182Q13.2861328125,8.02552,13.3016079125,7.86997Q13.3170830125,7.7144200000000005,13.3478842125,7.56113Q13.3786854125,7.407830000000001,13.4245158125,7.25826Q13.4703468125,7.10869,13.5307658125,6.96429Q13.5911848125,6.8198799999999995,13.6656098125,6.68203Q13.7400348125,6.54419,13.8277508125,6.41422Q13.9154658125,6.28426,14.0156258125,6.16344Q14.1157858125,6.04261,14.2274268125,5.932081Q14.3390728125,5.821553,14.4611128125,5.7223880000000005Q14.5831628125,5.6232240000000004,14.7144428125,5.536378Q14.8457128125,5.449532,14.984962812500001,5.37584Q15.1242028125,5.302149,15.2700728125,5.2423210000000005Q15.415942812499999,5.182494,15.567032812499999,5.137106Q15.718122812499999,5.0917191,15.8729828125,5.061209Q16.0278428125,5.0306988,16.1849728125,5.0153597Q16.3421028125,5.0000204952,16.5000028125,5L17.7076928125,5C18.812262812500002,5,19.7076928125,5.895431,19.7076928125,7L19.7076928125,7.97182ZM17.3662428125,9.01033Q17.0093328125,9.36364,16.5004228125,9.36364Q15.9915028125,9.36364,15.6345928125,9.01033Q15.2861328125,8.66539,15.2861328125,8.18182Q15.2861328125,7.69829,15.6345328125,7.35336Q15.991392812499999,7.00007,16.5000028125,7L17.7076928125,7L17.7076928125,8.03857L17.712142812499998,8.10516Q17.7147028125,8.14345,17.7147028125,8.18182Q17.7147028125,8.66539,17.3662428125,9.01033Z"
                fill-rule="evenodd" fill-opacity="1" />
            <path
                d="M19.7076928125,7.97182Q19.7147028125,8.07671,19.7147028125,8.18182Q19.7147028125,8.33813,19.6992228125,8.49369Q19.6837528125,8.64925,19.6529428125,8.80256Q19.6221328125,8.95587,19.5762928125,9.105450000000001Q19.530462812499998,9.25503,19.4700328125,9.39945Q19.4096028125,9.543859999999999,19.335162812500002,9.68172Q19.2607328125,9.819569999999999,19.173002812500002,9.949539999999999Q19.0852728125,10.079509999999999,18.9850928125,10.20034Q18.8849228125,10.32117,18.7732628125,10.4317Q18.6616028125,10.54223,18.5395428125,10.6414Q18.4174728125,10.74056,18.2861828125,10.8274Q18.1548828125,10.91425,18.0156228125,10.98793Q17.8763628125,11.06162,17.7304728125,11.12143Q17.5845828125,11.18125,17.4334728125,11.22663Q17.2823628125,11.272,17.1274928125,11.3025Q16.9726228125,11.332989999999999,16.8154728125,11.348320000000001Q16.6583228125,11.36364,16.5004228125,11.36364Q16.3425128125,11.36364,16.1853628125,11.348320000000001Q16.0282128125,11.332989999999999,15.873342812499999,11.3025Q15.7184728125,11.272,15.5673628125,11.22663Q15.4162528125,11.18125,15.2703628125,11.12143Q15.1244728125,11.06162,14.9852128125,10.98793Q14.8459528125,10.91425,14.7146528125,10.8274Q14.5833628125,10.74056,14.4612928125,10.6414Q14.3392328125,10.54223,14.2275748125,10.4317Q14.1159178125,10.32117,14.0157418125,10.20034Q13.9155668125,10.079509999999999,13.8278378125,9.949539999999999Q13.7401088125,9.819569999999999,13.6656718125,9.68172Q13.5912348125,9.543859999999999,13.5308058125,9.39945Q13.4703768125,9.25503,13.4245388125,9.105450000000001Q13.3787007125,8.95587,13.3478944125,8.80256Q13.3170881125,8.64925,13.3016105125,8.49369Q13.2861328125,8.33813,13.2861328125,8.18182Q13.2861328125,8.02552,13.3016079125,7.86997Q13.3170830125,7.7144200000000005,13.3478842125,7.56113Q13.3786854125,7.407830000000001,13.4245158125,7.25826Q13.4703468125,7.10869,13.5307658125,6.96429Q13.5911848125,6.8198799999999995,13.6656098125,6.68203Q13.7400348125,6.54419,13.8277508125,6.41422Q13.9154658125,6.28426,14.0156258125,6.16344Q14.1157858125,6.04261,14.2274268125,5.932081Q14.3390728125,5.821553,14.4611128125,5.7223880000000005Q14.5831628125,5.6232240000000004,14.7144428125,5.536378Q14.8457128125,5.449532,14.984962812500001,5.37584Q15.1242028125,5.302149,15.2700728125,5.2423210000000005Q15.415942812499999,5.182494,15.567032812499999,5.137106Q15.718122812499999,5.0917191,15.8729828125,5.061209Q16.0278428125,5.0306988,16.1849728125,5.0153597Q16.3421028125,5.0000204952,16.5000028125,5L17.7076928125,5C18.812262812500002,5,19.7076928125,5.895431,19.7076928125,7L19.7076928125,7.97182ZM20.7076928125,7.9407499999999995Q20.7147028125,8.06117,20.7147028125,8.18182Q20.7147028125,9.91696,19.476772812500002,11.142389999999999Q18.2430628125,12.36364,16.5004228125,12.36364Q14.7577728125,12.36364,13.5240668125,11.142389999999999Q12.2861328125,9.91696,12.2861328125,8.18182Q12.2861328125,6.44684,13.5238728125,5.221439Q14.7573828125,4.000226,16.4998728125,4L17.7076928125,4Q18.9503328125,4,19.8290128125,4.87868Q20.7076928125,5.75736,20.7076928125,7L20.7076928125,7.9407499999999995ZM17.7076928125,8.03857L17.7076928125,7L16.7076928125,7L16.5000028125,7Q15.991392812499999,7.00007,15.6345328125,7.35336Q15.2861328125,7.69829,15.2861328125,8.18182Q15.2861328125,8.66539,15.6345928125,9.01033Q15.9915028125,9.36364,16.5004228125,9.36364Q17.0093328125,9.36364,17.3662428125,9.01033Q17.7147028125,8.66539,17.7147028125,8.18182Q17.7147028125,8.14345,17.712142812499998,8.10516L17.7076928125,8.03857ZM16.7076928125,8L16.7076928125,8.07194L16.7143728125,8.17183Q16.7147028125,8.17682,16.7147028125,8.18181Q16.7147028125,8.2482,16.6627328125,8.29964Q16.5980928125,8.36364,16.5004228125,8.36364Q16.4027428125,8.36364,16.3381028125,8.29964Q16.2861328125,8.2482,16.2861328125,8.18182Q16.2861328125,8.11544,16.3380928125,8.064Q16.4027228125,8.00001,16.5001328125,8L16.7076928125,8Z"
                fill-rule="evenodd" fill="#FFFFFF" fill-opacity="1" />
        </g>
        <g style="mix-blend-mode:passthrough">
            <path
                d="M19.7147,8.18182Q19.7147,8.07671,19.7077,7.97182L19.7077,7C19.7077,5.895431,18.812269999999998,5,17.7077,5L16.5,5Q16.342109999999998,5.0000204952,16.18497,5.0153597Q16.02784,5.0306988,15.87298,5.061209Q15.71813,5.0917191,15.56704,5.137106Q15.415939999999999,5.182494,15.27007,5.2423210000000005Q15.12421,5.302149,14.984960000000001,5.37584Q14.84572,5.449532,14.71444,5.536378Q14.58316,5.6232240000000004,14.461120000000001,5.722389Q14.33907,5.821553,14.22743,5.932081Q14.11579,6.04261,14.01563,6.16344Q13.91547,6.28426,13.82775,6.41422Q13.74004,6.54419,13.665610000000001,6.68203Q13.59118,6.8198799999999995,13.53077,6.96429Q13.47035,7.10869,13.42452,7.25826Q13.37869,7.407830000000001,13.34788,7.56113Q13.31708,7.7144200000000005,13.30161,7.86997Q13.28613,8.02552,13.28613,8.18182Q13.28613,8.33813,13.30161,8.49369Q13.31709,8.64925,13.34789,8.80256Q13.3787,8.95587,13.42454,9.105450000000001Q13.47038,9.25503,13.53081,9.39945Q13.59123,9.543859999999999,13.66567,9.68172Q13.74011,9.819569999999999,13.82784,9.949539999999999Q13.91557,10.079509999999999,14.015740000000001,10.20034Q14.11592,10.32117,14.22758,10.4317Q14.33923,10.54223,14.4613,10.6414Q14.583359999999999,10.74056,14.71466,10.8274Q14.84595,10.91425,14.98521,10.98793Q15.12448,11.06162,15.27036,11.12143Q15.41625,11.18125,15.56736,11.22663Q15.71847,11.272,15.873339999999999,11.3025Q16.02822,11.332989999999999,16.18536,11.348320000000001Q16.34251,11.36364,16.50042,11.36364Q16.65833,11.36364,16.81547,11.348320000000001Q16.97262,11.332989999999999,17.12749,11.3025Q17.28237,11.272,17.43348,11.22663Q17.58458,11.18125,17.73047,11.12143Q17.87636,11.06162,18.01562,10.98793Q18.15488,10.91425,18.28618,10.8274Q18.41748,10.74056,18.53954,10.6414Q18.6616,10.54223,18.77326,10.4317Q18.88492,10.32117,18.98509,10.20034Q19.08527,10.079509999999999,19.173000000000002,9.949539999999999Q19.26073,9.819569999999999,19.335169999999998,9.68172Q19.4096,9.543859999999999,19.47003,9.39945Q19.530459999999998,9.25503,19.5763,9.105450000000001Q19.62214,8.95587,19.65294,8.80256Q19.68375,8.64925,19.69923,8.49369Q19.7147,8.33813,19.7147,8.18182ZM16.50042,9.36364Q17.00933,9.36364,17.36624,9.01033Q17.7147,8.66539,17.7147,8.18182Q17.7147,8.14345,17.71215,8.10516L17.7077,8.03857L17.7077,7L16.5,7Q15.991389999999999,7.00007,15.63454,7.35336Q15.28613,7.69829,15.28613,8.18182Q15.28613,8.66539,15.63459,9.01033Q15.9915,9.36364,16.50042,9.36364ZM12,16.2857C12,17.2325,12.774476,18,13.72125,18L16.5,18L19.27875,18C20.22552,18,21,17.2325,21,16.2857C21,13.91878,19.081220000000002,12,16.71429,12L16.28571,12C13.91878,12,12,13.91878,12,16.2857ZM16.5,16L14.01596,16Q14.103349999999999,15.2356,14.66947,14.66947Q15.338940000000001,14,16.28571,14L16.71428,14Q17.66106,14,18.33053,14.66947Q18.89665,15.2356,18.98404,16L16.5,16Z"
                fill-rule="evenodd" fill-opacity="1" />
            <path
                d="M19.476770000000002,11.142389999999999Q20.7147,9.91696,20.7147,8.18182Q20.7147,8.06117,20.707700000000003,7.9407499999999995L20.707700000000003,7Q20.707700000000003,5.757359,19.82902,4.87868Q18.95034,4,17.7077,4L16.5,4Q14.757390000000001,4.000226,13.52387,5.221439Q12.286133,6.44684,12.286133,8.18182Q12.286133,9.91696,13.52407,11.142389999999999Q13.73387,11.35008,13.95839,11.52244Q13.19696,11.899339999999999,12.548149,12.54815Q11,14.0963,11,16.2857Q11,17.411,11.800459,18.207Q12.597929,19,13.72125,19L16.5,19L19.27875,19Q20.402070000000002,19,21.19954,18.207Q22,17.411,22,16.2857Q22,14.0963,20.45185,12.54815Q19.80326,11.899560000000001,19.04211,11.52269Q19.26681,11.35023,19.476770000000002,11.142389999999999ZM17.85699,12.15402C17.4932,12.05363,17.11001,12,16.71429,12L16.28571,12C15.89016,12,15.50712,12.05359,15.143460000000001,12.1539C13.33105,12.653839999999999,12,14.31433,12,16.2857C12,17.2325,12.774476,18,13.72125,18L16.5,18L19.27875,18C20.22552,18,21,17.2325,21,16.2857C21,14.3145,19.66918,12.65411,17.85699,12.15402ZM17.78282,11.09943Q17.99695,11.00721,18.19537,10.88531Q18.39379,10.76341,18.57233,10.6144Q18.75086,10.46539,18.90577,10.2924Q19.060670000000002,10.11941,19.18869,9.92607Q19.31671,9.73273,19.41515,9.523109999999999Q19.51359,9.31348,19.5804,9.09197Q19.647190000000002,8.870470000000001,19.68095,8.641729999999999Q19.7147,8.41299,19.7147,8.18182Q19.7147,8.07671,19.7077,7.97182L19.7077,7C19.7077,5.895431,18.812269999999998,5,17.7077,5L16.5,5Q16.342109999999998,5.0000204952,16.18497,5.0153597Q16.02784,5.0306988,15.87298,5.061209Q15.71813,5.0917191,15.56704,5.137106Q15.415939999999999,5.182494,15.27007,5.2423210000000005Q15.12421,5.302149,14.984960000000001,5.37584Q14.84572,5.449532,14.71444,5.536378Q14.58316,5.6232240000000004,14.461120000000001,5.722389Q14.33907,5.821553,14.22743,5.932081Q14.11579,6.04261,14.01563,6.16344Q13.91547,6.28426,13.82775,6.41422Q13.74004,6.54419,13.665610000000001,6.68203Q13.59118,6.8198799999999995,13.53077,6.96429Q13.47035,7.10869,13.42452,7.25826Q13.37869,7.407830000000001,13.34788,7.56113Q13.31708,7.7144200000000005,13.30161,7.86997Q13.28613,8.02552,13.28613,8.18182Q13.28613,8.41297,13.31988,8.64169Q13.35363,8.87042,13.42042,9.09191Q13.48721,9.3134,13.58564,9.52301Q13.68407,9.73263,13.81207,9.92595Q13.94007,10.11928,14.09495,10.29227Q14.24983,10.465250000000001,14.42835,10.61426Q14.606860000000001,10.76327,14.805250000000001,10.88518Q15.00365,11.00708,15.21776,11.099319999999999Q15.8313,11.36364,16.50042,11.36364Q17.16939,11.36364,17.78282,11.09943ZM17.7077,8.03857L17.71215,8.10516Q17.7147,8.14345,17.7147,8.18182Q17.7147,8.66539,17.36624,9.01033Q17.00933,9.36364,16.50042,9.36364Q15.9915,9.36364,15.63459,9.01033Q15.28613,8.66539,15.28613,8.18182Q15.28613,7.69829,15.63454,7.35336Q15.991389999999999,7.00007,16.5,7L16.7077,7L17.7077,7L17.7077,8.03857ZM16.7077,8L16.7077,8.07194L16.71437,8.17184Q16.7147,8.17682,16.7147,8.18182Q16.7147,8.2482,16.66274,8.29964Q16.59809,8.36364,16.50042,8.36364Q16.40275,8.36364,16.3381,8.29964Q16.28613,8.2482,16.28613,8.18182Q16.28613,8.11544,16.33809,8.064Q16.40273,8.00001,16.5,8L16.7077,8ZM15.02787,16L16.5,16L17.97213,16L18.98404,16Q18.92098,15.4484,18.6086,15Q18.48811,14.82705,18.33053,14.66947Q17.66106,14,16.71428,14L16.28571,14Q15.338940000000001,14,14.66947,14.66947Q14.511890000000001,14.82705,14.3914,15Q14.07902,15.4484,14.01596,16L15.02787,16Z"
                fill-rule="evenodd" fill="#FFFFFF" fill-opacity="1" />
        </g>
    </g>
</svg>