<svg xmlns="http://www.w3.org/2000/svg" xmlns:xlink="http://www.w3.org/1999/xlink" version="1.1"
    width="14.849241256713867" height="14.849241256713867" viewBox="0 0 14.849241256713867 14.849241256713867">
    <g style="mix-blend-mode:passthrough">
        <g>
            <g style="mix-blend-mode:passthrough">
                <path
                    d="M9.313720703125,8.5L9.313720703125,12.3074Q9.313720703125,14.1404,10.341368703125,15.6583Q11.369016003125,17.1762,13.070940703125,17.857Q13.248120703125,17.9278,13.435500703125001,17.9639Q13.622890703125,18,13.813720703125,18Q14.004550703125,18,14.191940703124999,17.9639Q14.379320703125,17.9278,14.556500703125,17.857Q16.258430703125,17.1762,17.286070703125,15.6583Q18.313720703125,14.1404,18.313720703125,12.3074L18.313720703125,2.5Q18.313720703125,0.636039,16.995700703125,-0.68198Q15.677680703124999,-2,13.813720703125,-2Q11.949759703125,-2,10.631739703125,-0.68198Q9.313720703125,0.636039,9.313720703125,2.5L9.313720703125,8.5ZM13.813720703125,16C12.303806703125,15.396,11.313720703125,13.9336,11.313720703125,12.3074L11.313720703125,2.5C11.313720703125,1.11929,12.433010703125,0,13.813720703125,0C15.194430703125,0,16.313720703125,1.11929,16.313720703125,2.5L16.313720703125,12.3074C16.313720703125,13.9336,15.323630703125,15.396,13.813720703125,16Z"
                    fill-rule="evenodd"
                    transform="matrix(0.7071067094802856,0.7071067094802856,-0.7071067094802856,0.7071067094802856,3.3137128847592976,-8.000007818365702)"
                    fill-opacity="1" />
            </g>
            <g style="mix-blend-mode:passthrough">
                <rect x="8.631591796875" y="0.96044921875" width="7" height="2" rx="0"
                    transform="matrix(0.7071067690849304,0.7071067690849304,-0.7071067690849304,0.7071067690849304,3.207274953267188,-5.822147912738728)"
                    fill-opacity="1" />
                <rect x="9.131591796875" y="1.46044921875" width="6" height="1" rx="0"
                    transform="matrix(0.7071067690849304,0.7071067690849304,-0.7071067690849304,0.7071067690849304,3.207274953267188,-5.822147912738728)"
                    fill-opacity="0" stroke-opacity="1" stroke-width="1" stroke-dasharray="" />
            </g>
        </g>
    </g>
</svg>