<svg xmlns="http://www.w3.org/2000/svg" xmlns:xlink="http://www.w3.org/1999/xlink" version="1.1" width="20" height="16"
    viewBox="0 0 20 16">
    <g style="mix-blend-mode:passthrough">
        <path
            d="M4.8734,11.0532Q5.37265,9.9673,5.88793,8.71787Q6.27237,7.78567,6.58327,6.93132Q7.18963,7.64312,7.90158,8.40427Q9.02971,9.61035,10.0423,10.6413Q9.04864,10.6543,7.9704,10.7205Q6.29764,10.8231,4.8734,11.0532ZM2.3936,11.6047Q3.18346,10.0281,4.03934,7.9528L4.03934,7.95279Q4.69137,6.37173,5.11601,5.06799Q3.28069,2.50552,3.11745,0.724552Q3.08249,0.343145,3.11923,-4.996e-16L3,0C1.34315,0,0,1.34315,0,3L0,12.5746Q1.0342,12.0063,2.3936,11.6047ZM0.476041,14.6223Q0.609523,14.532,0.75262,14.4457Q0.650211,14.5932,0.549139,14.7305C0.524011,14.695,0.499638,14.6589,0.476041,14.6223ZM2.17843,15.8861Q2.9476,14.8297,3.76281,13.3036Q5.60056,12.8702,8.09548,12.7172Q10.307,12.5815,12.107,12.6755Q14.1513,14.6127,15.5821,15.6199Q15.876,15.8268,16.1522,16L3,16C2.71512,16,2.43952,15.9603,2.17843,15.8861ZM19.9808,13.3415C19.9935,13.2294,20,13.1155,20,13L20,3C20,1.34315,18.6569,0,17,0L7.80133,0Q8.1346,1.72907,7.31263,4.68093Q8.1705,5.766,9.36076,7.03851Q11.3575,9.17323,12.9661,10.7322Q16.0971,10.9895,18.1079,11.9501Q19.3522,12.5445,19.9808,13.3415ZM15.6947,13.1931Q16.2525,13.6474,16.7313,13.9844Q17.8358,14.7619,18.4349,14.8788Q18.5253,14.8965,18.5704,14.8966Q18.58,14.8453,18.506,14.7172Q18.2176,14.2181,17.2482,13.755Q16.5584,13.4255,15.6947,13.1931ZM5.78932,2.45179Q6.01357,1.10974,5.81743,0.280354Q5.77894,0.117577,5.72981,7.63278e-17L5.15549,0Q5.07767,0.206304,5.10867,0.544548Q5.1823,1.34778,5.78932,2.45179Z"
            fill-rule="evenodd" fill-opacity="1" />
    </g>
</svg>