<svg xmlns="http://www.w3.org/2000/svg" xmlns:xlink="http://www.w3.org/1999/xlink" fill="none" version="1.1" width="20" height="16" viewBox="0 0 20 16"><g style="mix-blend-mode:passthrough"><path d="M0,3C0,1.34315,1.34315,0,3,0L17,0C18.6569,0,20,1.34315,20,3L20,12.5999Q18.5497,5.5,14.5,5.5Q12.5556,5.5,11.2128,6.84788Q10.4708,7.5926,9.38113,9.55387Q8.63707,10.8931,8.18588,11.5353Q7.45564,12.5748,6.608,13.2505Q4.48743,14.941,0.762115,14.998C0.288132,14.4675,0,13.7674,0,13L0,3ZM5.88446,16L17,16C17.5269,16,18.0221,15.8642,18.4524,15.6256Q17.9638,11.4283,16.8651,9.34075Q15.8963,7.5,14.5,7.5Q13.3862,7.5,12.6296,8.25946Q12.084,8.80711,11.1294,10.5252Q10.3342,11.9565,9.82242,12.685Q8.927,13.9596,7.85468,14.8144Q6.96754,15.5216,5.88446,16ZM8,5.5Q8,5.62282,7.98796,5.74504Q7.97592,5.86727,7.95196,5.98772Q7.928,6.10818,7.89235,6.22571Q7.8567,6.34324,7.8097,6.45671Q7.7627,6.57018,7.7048,6.67849Q7.64691,6.78681,7.57867,6.88893Q7.51044,6.99104,7.43253,7.08598Q7.35461,7.18092,7.26777,7.26777Q7.18092,7.35461,7.08598,7.43253Q6.99104,7.51044,6.88893,7.57867Q6.78681,7.64691,6.67849,7.7048Q6.57018,7.7627,6.45671,7.8097Q6.34324,7.8567,6.22571,7.89235Q6.10818,7.928,5.98773,7.95196Q5.86727,7.97592,5.74504,7.98796Q5.62282,8,5.5,8Q5.37718,8,5.25496,7.98796Q5.13273,7.97592,5.01227,7.95196Q4.89182,7.928,4.77429,7.89235Q4.65676,7.8567,4.54329,7.8097Q4.42982,7.7627,4.32151,7.7048Q4.21319,7.64691,4.11107,7.57867Q4.00896,7.51044,3.91402,7.43253Q3.81908,7.35461,3.73223,7.26777Q3.64539,7.18092,3.56747,7.08598Q3.48956,6.99104,3.42133,6.88893Q3.35309,6.78681,3.2952,6.67849Q3.2373,6.57018,3.1903,6.45671Q3.1433,6.34324,3.10765,6.22571Q3.072,6.10818,3.04804,5.98773Q3.02408,5.86727,3.01204,5.74504Q3,5.62282,3,5.5Q3,5.37718,3.01204,5.25496Q3.02408,5.13273,3.04804,5.01227Q3.072,4.89182,3.10765,4.77429Q3.1433,4.65676,3.1903,4.54329Q3.2373,4.42982,3.2952,4.32151Q3.35309,4.21319,3.42133,4.11107Q3.48956,4.00896,3.56747,3.91402Q3.64539,3.81908,3.73223,3.73223Q3.81908,3.64539,3.91402,3.56747Q4.00896,3.48956,4.11107,3.42133Q4.21319,3.35309,4.32151,3.2952Q4.42982,3.2373,4.54329,3.1903Q4.65676,3.1433,4.77429,3.10765Q4.89182,3.072,5.01227,3.04804Q5.13273,3.02408,5.25496,3.01204Q5.37718,3,5.5,3Q5.62282,3,5.74504,3.01204Q5.86727,3.02408,5.98772,3.04804Q6.10818,3.072,6.22571,3.10765Q6.34324,3.1433,6.45671,3.1903Q6.57018,3.2373,6.67849,3.2952Q6.78681,3.35309,6.88893,3.42133Q6.99104,3.48956,7.08598,3.56747Q7.18092,3.64539,7.26777,3.73223Q7.35461,3.81908,7.43253,3.91402Q7.51044,4.00896,7.57867,4.11107Q7.64691,4.21319,7.7048,4.32151Q7.7627,4.42982,7.8097,4.54329Q7.8567,4.65676,7.89235,4.77429Q7.928,4.89182,7.95196,5.01227Q7.97592,5.13273,7.98796,5.25496Q8,5.37718,8,5.5Z" fill-rule="evenodd" fill="#E2E2E2" fill-opacity="1"/></g></svg>