<svg xmlns="http://www.w3.org/2000/svg" xmlns:xlink="http://www.w3.org/1999/xlink" version="1.1" width="20" height="16"
    viewBox="0 0 20 16">
    <g style="mix-blend-mode:passthrough">
        <g style="mix-blend-mode:passthrough">
            <path
                d="M5,0C3.895431,0,3,0.895431,3,2L3,14C3,15.1046,3.895431,16,5,16L15,16C16.104599999999998,16,17,15.1046,17,14L17,2C17,0.895431,16.104599999999998,0,15,0L5,0ZM17,11C17,11.5523,16.552300000000002,12,16,12L13,12C12.44771,12,12,11.5523,12,11C12,10.4477,12.44771,10,13,10L16,10C16.552300000000002,10,17,10.4477,17,11Z"
                fill-rule="evenodd" fill-opacity="0.5" />
        </g>
        <g style="mix-blend-mode:passthrough">
            <path
                d="M2,2C0.895431,2,0,2.895431,0,4L0,12C0,13.1046,0.895431,14,2,14L18,14C19.1046,14,20,13.1046,20,12L20,4C20,2.895431,19.1046,2,18,2L2,2ZM13,10C12.4477,10,12,10.44771,12,11C12,11.55228,12.4477,12,13,12L16,12C16.5523,12,17,11.55228,17,11C17,10.44771,16.5523,10,16,10L13,10Z"
                fill-rule="evenodd" fill-opacity="1" />
        </g>
    </g>
</svg>