<svg xmlns="http://www.w3.org/2000/svg" xmlns:xlink="http://www.w3.org/1999/xlink" version="1.1" width="28" height="28"
    viewBox="0 0 28 28">
    <g style="mix-blend-mode:passthrough">
        <g style="opacity:0;mix-blend-mode:passthrough">
            <rect x="0" y="0" width="28" height="28" rx="0" fill-opacity="1" />
        </g>
        <g style="mix-blend-mode:passthrough">
            <g style="mix-blend-mode:passthrough">
                <rect x="5" y="6" width="16" height="17" rx="3" fill-opacity="1" stroke-opacity="1" fill="none"
                    stroke-width="2" />
            </g>
            <g style="mix-blend-mode:passthrough" transform="matrix(0,1,-1,0,13,-7)">
                <rect x="10" y="3" width="5" height="2" rx="1" fill-opacity="1" />
            </g>
            <g style="mix-blend-mode:passthrough" transform="matrix(-1,0,0,-1,34,26)">
                <rect x="17" y="13" width="9" height="2" rx="1" fill-opacity="1" />
            </g>
            <g style="mix-blend-mode:passthrough" transform="matrix(-1,0,0,-1,28,34)">
                <rect x="14" y="17" width="6" height="2" rx="1" fill-opacity="1" />
            </g>
            <g style="mix-blend-mode:passthrough" transform="matrix(0,1,-1,0,21,-15)">
                <rect x="18" y="3" width="5" height="2" rx="1" fill-opacity="1" />
            </g>
            <g style="mix-blend-mode:passthrough"
                transform="matrix(-0.70710688829422,-0.7071065902709961,-0.7071064710617065,0.7071067690849304,51.827030541240674,21.467454997475215)">
                <path
                    d="M24.80322265625,20.831575087890627C24.80322265625,21.516775087890625,25.19035665625,22.143175087890626,25.80322265625,22.449605087890625C26.41609265625,22.143175087890626,26.80322265625,21.516775087890625,26.80322265625,20.831575087890627L26.80322265625,14.414215087890625C26.80322265625,13.861930087890626,26.35550265625,13.414215087890625,25.80322265625,13.414215087890625C25.25093765625,13.414215087890625,24.80322265625,13.861930087890626,24.80322265625,14.414215087890625L24.80322265625,18.699605087890625L24.80322265625,20.831575087890627Z"
                    fill-opacity="1" />
                <path
                    d="M23.80322265625,18.699605087890625L23.80322265625,20.831575087890627Q23.80322265625,21.629555087890623,24.22274665625,22.308365087890625Q24.64227065625,22.987165087890624,25.35600965625,23.344035087890624Q25.46015065625,23.396105087890625,25.57346965625,23.422815087890626Q25.68678865625,23.449615087890624,25.80322265625,23.449615087890624Q25.91965265625,23.449615087890624,26.03297265625,23.422815087890626Q26.14629265625,23.396105087890625,26.25043265625,23.344035087890624Q26.96417265625,22.987165087890624,27.38370265625,22.308365087890625Q27.80322265625,21.629555087890623,27.80322265625,20.831575087890627L27.80322265625,14.414215087890625Q27.80322265625,13.585788087890625,27.21743265625,13.000001087890626Q26.63165265625,12.414215087890625,25.80322265625,12.414215087890625Q24.97479565625,12.414215087890625,24.38900865625,13.000001087890626Q23.80322265625,13.585788087890625,23.80322265625,14.414215087890625L23.80322265625,18.699605087890625ZM25.80322265625,22.449605087890625C25.19035665625,22.143175087890626,24.80322265625,21.516775087890625,24.80322265625,20.831575087890627L24.80322265625,14.414215087890625C24.80322265625,13.861930087890626,25.25093765625,13.414215087890625,25.80322265625,13.414215087890625C26.35550265625,13.414215087890625,26.80322265625,13.861930087890626,26.80322265625,14.414215087890625L26.80322265625,20.831575087890627C26.80322265625,21.516775087890625,26.41609265625,22.143175087890626,25.80322265625,22.449605087890625Z"
                    fill-rule="evenodd" fill="#FFFFFF" fill-opacity="1" />
            </g>
        </g>
    </g>
</svg>