<svg xmlns="http://www.w3.org/2000/svg" xmlns:xlink="http://www.w3.org/1999/xlink" version="1.1" width="28" height="28"
    viewBox="0 0 28 28">
    <g style="mix-blend-mode:passthrough">
        <g style="opacity:0;mix-blend-mode:passthrough">
            <rect x="0" y="0" width="28" height="28" rx="0" fill="#D8D8D8" fill-opacity="1" />
        </g>
        <g style="mix-blend-mode:passthrough">
            <g style="mix-blend-mode:passthrough">
                <g style="mix-blend-mode:passthrough">
                    <rect x="6" y="6" width="16" height="17" rx="3" fill-opacity="0" stroke-opacity="1" fill="none"
                        stroke-width="2" />
                </g>
                <g style="mix-blend-mode:passthrough" transform="matrix(0,1,-1,0,14,-8)">
                    <rect x="11" y="3" width="5" height="2" rx="1" fill-opacity="1" />
                </g>
                <g style="mix-blend-mode:passthrough" transform="matrix(-1,0,0,-1,36,26)">
                    <rect x="18" y="13" width="9" height="2" rx="1" fill-opacity="1" />
                </g>
                <g style="mix-blend-mode:passthrough" transform="matrix(-1,0,0,-1,30,34)">
                    <rect x="15" y="17" width="6" height="2" rx="1" fill-opacity="1" />
                </g>
                <g style="mix-blend-mode:passthrough"
                    transform="matrix(0.9999999403953552,0,0,0.9999999403953552,0.0000011252433296249365,7.676156315028493e-7)">
                    <path
                        d="M19.171952393676758,17.414023254699707C18.78142809367676,17.80454325469971,18.78142809367676,18.43771325469971,19.171952393676758,18.828233254699708C19.562476393676757,19.218763254699706,20.195640393676758,19.218763254699706,20.586170393676756,18.828233254699708L21.999910393676757,17.414493254699707L23.41399039367676,18.828573254699705C23.804510393676757,19.219093254699708,24.437680393676757,19.219093254699708,24.82820039367676,18.828573254699705C25.218730393676758,18.438053254699707,25.218730393676758,17.804883254699707,24.82820039367676,17.41436325469971L23.414120393676757,16.000283254699706L24.828810393676758,14.585593254699708C25.219330393676756,14.195073254699707,25.219330393676756,13.561906254699707,24.828810393676758,13.171381254699707C24.438280393676756,12.780857554699708,23.80512039367676,12.780857554699708,23.414590393676757,13.171381254699707L21.999910393676757,14.586063254699708L20.585560393676758,13.171718254699707C20.19504039367676,12.781194654699707,19.561872393676758,12.781194654699707,19.17134839367676,13.171718254699707C18.780824193676757,13.562243254699707,18.780824193676757,14.195413254699707,19.17134839367676,14.585933254699707L20.585690393676757,16.000283254699706L19.171952393676758,17.414023254699707Z"
                        fill-rule="evenodd" fill-opacity="1" />
                    <path
                        d="M19.171481393676757,16.000283254699706L18.464845393676757,16.706913254699707Q17.87905939367676,17.292703254699706,17.87905939367676,18.121133254699707Q17.87905939367676,18.94955325469971,18.46484639367676,19.535343254699708Q19.050632393676757,20.121133254699707,19.87906039367676,20.121133254699707Q20.707490393676757,20.121133254699707,21.293270393676757,19.535343254699708L21.999910393676757,18.828703254699708L22.70688039367676,19.535683254699705Q23.292670393676758,20.121463254699705,24.12110039367676,20.121463254699705Q24.949520393676757,20.121463254699705,25.53531039367676,19.535683254699705Q26.12110039367676,18.949893254699706,26.12110039367676,18.121463254699705Q26.12110039367676,17.293043254699707,25.53531039367676,16.707253254699708L24.828340393676758,16.000283254699706L25.535910393676758,15.292703254699706Q26.121700393676758,14.706913254699707,26.121700393676758,13.878493254699707Q26.121700393676758,13.050061254699708,25.535910393676758,12.464274254699706Q24.95013039367676,11.878488254699707,24.121700393676758,11.878488254699707Q23.293270393676757,11.878488254699707,22.707490393676757,12.464274254699706L21.999910393676757,13.171852254699708L21.292670393676758,12.464612254699707Q20.70688039367676,11.878825254699708,19.878450393676758,11.878825254699708Q19.050028393676758,11.878825254699708,18.464241393676758,12.464612254699707Q17.87845539367676,13.050398254699706,17.87845539367676,13.878823254699707Q17.87845539367676,14.707253254699706,18.464241393676758,15.293043254699707L19.171481393676757,16.000283254699706ZM19.87859039367676,16.707383254699707L19.171952393676758,17.414023254699707C18.78142809367676,17.80454325469971,18.78142809367676,18.43771325469971,19.171952393676758,18.828233254699708C19.562476393676757,19.218763254699706,20.195640393676758,19.218763254699706,20.586170393676756,18.828233254699708L21.292800393676757,18.121603254699707L21.999910393676757,17.414493254699707L22.707020393676757,18.121603254699707L23.41399039367676,18.828573254699705C23.804510393676757,19.219093254699708,24.437680393676757,19.219093254699708,24.82820039367676,18.828573254699705C25.218730393676758,18.438053254699707,25.218730393676758,17.804883254699707,24.82820039367676,17.41436325469971L23.414120393676757,16.000283254699706L24.121230393676758,15.293173254699706L24.828810393676758,14.585593254699708C25.219330393676756,14.195073254699707,25.219330393676756,13.561906254699707,24.828810393676758,13.171381254699707C24.438280393676756,12.780857554699708,23.80512039367676,12.780857554699708,23.414590393676757,13.171381254699707L21.999910393676757,14.586063254699708L20.585560393676758,13.171718254699707C20.19504039367676,12.781194654699707,19.561872393676758,12.781194654699707,19.17134839367676,13.171718254699707C18.780824193676757,13.562243254699707,18.780824193676757,14.195413254699707,19.17134839367676,14.585933254699707L19.87859039367676,15.293173254699706L20.585690393676757,16.000283254699706L19.87859039367676,16.707383254699707Z"
                        fill-rule="evenodd" fill="#FFFFFF" fill-opacity="1" />
                </g>
                <g style="mix-blend-mode:passthrough" transform="matrix(0,1,-1,0,22,-16)">
                    <rect x="19" y="3" width="5" height="2" rx="1" fill-opacity="1" />
                </g>
            </g>
        </g>
    </g>
</svg>