<svg xmlns="http://www.w3.org/2000/svg" xmlns:xlink="http://www.w3.org/1999/xlink" version="1.1" width="19"
    height="21.5" viewBox="0 0 19 21.5">
    <g style="mix-blend-mode:passthrough">
        <g style="mix-blend-mode:passthrough">
            <path
                d="M8.116859999999999,17.22562220703125L10.93599,11.50105220703125L6.908666,11.50105220703125Q5.9521755,11.54165220703125,6.00251707,10.85145420703125Q5.9521755,10.20185770703125,6.908666,10.20185770703125L11.74146,10.20185770703125Q13,10.16125790703125,13,11.01385320703125Q13,11.25745220703125,12.79863,11.58225220703125L9.878820000000001,17.63161220703125Q9.62711,18.20001220703125,9.07335,18.20001220703125Q7.81481,18.11881220703125,8.116859999999999,17.22562220703125Z"
                fill-opacity="1" />
        </g>
        <g style="mix-blend-mode:passthrough">
            <rect x="1" y="2.499969482421875" width="17" height="18" rx="3" fill-opacity="0" stroke-opacity="1"
                fill="none" stroke-width="2" />
        </g>
        <g style="mix-blend-mode:passthrough" transform="matrix(0,1,-1,0,7,-7)">
            <rect x="7" y="0" width="5" height="2" rx="1" fill-opacity="1" />
        </g>
        <g style="mix-blend-mode:passthrough" transform="matrix(-1,0,0,-1,36,16.99993896484375)">
            <rect x="18" y="8.499969482421875" width="18" height="2" rx="1" fill-opacity="1" />
        </g>
        <g style="mix-blend-mode:passthrough" transform="matrix(0,1,-1,0,14,-14)">
            <rect x="14" y="0" width="5" height="2" rx="1" fill-opacity="1" />
        </g>
    </g>
</svg>