<svg xmlns="http://www.w3.org/2000/svg" xmlns:xlink="http://www.w3.org/1999/xlink" version="1.1" width="28" height="28"
    viewBox="0 0 28 28">
    <g style="mix-blend-mode:passthrough">
        <g style="opacity:0;mix-blend-mode:passthrough">
            <rect x="0" y="0" width="28" height="28" rx="0" fill-opacity="1" />
        </g>
        <g style="mix-blend-mode:passthrough">
            <g style="mix-blend-mode:passthrough" transform="matrix(0,1,-1,0,27,-19)">
                <path
                    d="M26.99996,10.91846L22.9999600649,10.9183Q22.9014687,10.918289999999999,22.804871,10.89907Q22.708272,10.87986,22.61728,10.84216Q22.526287,10.80447,22.444397,10.74974Q22.362506,10.69502,22.292865,10.62538Q22.223224,10.55573,22.168508,10.47383Q22.113793,10.39194,22.076105,10.30094Q22.038418,10.20995,22.019207,10.11335Q22,10.01675,22,9.91826Q22.000004,9.81205,22.022315,9.70822Q22.044626,9.60439,22.088248,9.50756Q22.13187,9.410730000000001,22.194857,9.32522Q22.257844,9.239709999999999,22.337386,9.16934L29.02691,3.251039Q29.0949,3.190883,29.172620000000002,3.143955Q29.25034,3.097028,29.33523,3.064864Q29.42013,3.032699,29.509430000000002,3.01635Q29.59873,3,29.68952,3Q29.78031,3,29.86961,3.01635Q29.95891,3.032699,30.04381,3.064864Q30.128709999999998,3.097028,30.20642,3.143955Q30.28414,3.190883,30.35213,3.251039L37.0417,9.16934Q37.1154,9.2346,37.175,9.312999999999999Q37.234700000000004,9.3914,37.2778,9.47992Q37.321,9.568439999999999,37.3461,9.663689999999999Q37.3712,9.75893,37.3772,9.857240000000001Q37.3832,9.955549999999999,37.3699,10.053139999999999Q37.3566,10.15073,37.324600000000004,10.24386Q37.292500000000004,10.33698,37.2429,10.42206Q37.1933,10.50714,37.128,10.58091Q37.0576,10.66046,36.9721,10.72345Q36.8866,10.786439999999999,36.7898,10.83006Q36.6929,10.87368,36.5891,10.895990000000001Q36.4852,10.9183,36.379,10.9183L33.0343,10.9183L33.0343,8.9183L36.379,8.9183L36.379,9.9183L35.7164,10.667259999999999L29.02691,4.7489609999999995L29.68952,4L30.35213,4.7489609999999995L23.662614,10.667259999999999L23,9.9183L23.0000399351,8.9183L27.00004,8.91846L26.99996,10.91846ZM28,9.91846Q28,10.01695,27.98078,10.11355Q27.961570000000002,10.210149999999999,27.92388,10.30114Q27.88619,10.39213,27.83147,10.474029999999999Q27.77675,10.55592,27.70711,10.62556Q27.63746,10.69521,27.55557,10.749929999999999Q27.47368,10.80464,27.38268,10.84234Q27.29169,10.88003,27.19509,10.899239999999999Q27.098489999999998,10.91846,27,10.91846Q26.901510000000002,10.91846,26.80491,10.899239999999999Q26.70831,10.88003,26.61732,10.84234Q26.52632,10.80464,26.44443,10.749929999999999Q26.36254,10.69521,26.29289,10.62556Q26.22325,10.55592,26.16853,10.474029999999999Q26.11381,10.39213,26.07612,10.30114Q26.038429999999998,10.210149999999999,26.01921,10.11355Q26,10.01695,26,9.91846Q26,9.81997,26.01921,9.72337Q26.038429999999998,9.62677,26.07612,9.53577Q26.11381,9.44478,26.16853,9.36289Q26.22325,9.28099,26.29289,9.21135Q26.36254,9.14171,26.44443,9.08699Q26.52632,9.03227,26.61732,8.99458Q26.70831,8.95689,26.80491,8.93767Q26.901510000000002,8.91846,27,8.91846Q27.098489999999998,8.91846,27.19509,8.93767Q27.29169,8.95689,27.38268,8.99458Q27.47368,9.03227,27.55557,9.08699Q27.63746,9.14171,27.70711,9.21135Q27.77675,9.28099,27.83147,9.36289Q27.88619,9.44478,27.92388,9.53577Q27.961570000000002,9.62677,27.98078,9.72337Q28,9.81997,28,9.91846ZM34.0343,9.9183Q34.0343,10.01679,34.015100000000004,10.113389999999999Q33.9958,10.209990000000001,33.9582,10.30098Q33.920500000000004,10.39197,33.865700000000004,10.47387Q33.811,10.55576,33.7414,10.625399999999999Q33.6717,10.69505,33.5898,10.74977Q33.507999999999996,10.80448,33.417,10.842179999999999Q33.326,10.87987,33.2294,10.89908Q33.1328,10.9183,33.0343,10.9183Q32.93579,10.9183,32.83919,10.89908Q32.74259,10.87987,32.6516,10.842179999999999Q32.5606,10.80448,32.47871,10.74977Q32.39682,10.69505,32.32717,10.625399999999999Q32.25753,10.55576,32.20281,10.47387Q32.148089999999996,10.39197,32.1104,10.30098Q32.07271,10.209990000000001,32.05349,10.113389999999999Q32.03428,10.01679,32.03428,9.9183Q32.03428,9.81981,32.05349,9.72321Q32.07271,9.62661,32.1104,9.53561Q32.148089999999996,9.44462,32.20281,9.362729999999999Q32.25753,9.28083,32.32717,9.21119Q32.39682,9.141549999999999,32.47871,9.086829999999999Q32.5606,9.03211,32.6516,8.99442Q32.74259,8.95673,32.83919,8.93751Q32.93579,8.9183,33.0343,8.9183Q33.1328,8.9183,33.2294,8.93751Q33.326,8.95673,33.417,8.99442Q33.507999999999996,9.03211,33.5898,9.086829999999999Q33.6717,9.141549999999999,33.7414,9.21119Q33.811,9.28083,33.8658,9.362729999999999Q33.920500000000004,9.44462,33.9582,9.53561Q33.9958,9.62661,34.015100000000004,9.72321Q34.0343,9.81981,34.0343,9.9183Z"
                    fill-opacity="1" />
            </g>
            <g style="mix-blend-mode:passthrough" transform="matrix(0,-1,1,0,-18.92241668701172,28.92241668701172)">
                <path
                    d="M8.92238,30.84087668701172L4.999959275,30.84071668701172Q4.9014679,30.840706687011718,4.80487,30.82148668701172Q4.708272,30.80227668701172,4.617279,30.76457668701172Q4.526286,30.72688668701172,4.444396,30.672156687011718Q4.362506,30.61743668701172,4.292864,30.54779668701172Q4.223223,30.47814668701172,4.168508,30.39624668701172Q4.113792,30.314356687011717,4.076105,30.22335668701172Q4.038418,30.132366687011718,4.019207,30.03576668701172Q4,29.93916668701172,4,29.84067668701172Q4.000004,29.734466687011718,4.022315,29.63063668701172Q4.044626,29.52680668701172,4.088248,29.429976687011717Q4.13187,29.33314668701172,4.194857,29.24763668701172Q4.257844,29.162126687011718,4.337386,29.091756687011717L11.02691,23.173455687011717Q11.094899999999999,23.113299687011718,11.17262,23.066371687011717Q11.25034,23.01944468701172,11.33523,22.98728068701172Q11.42013,22.95511568701172,11.50943,22.938766687011718Q11.59873,22.92241668701172,11.68952,22.92241668701172Q11.78031,22.92241668701172,11.86961,22.938766687011718Q11.95891,22.95511568701172,12.04381,22.98728068701172Q12.12871,23.01944468701172,12.20642,23.066371687011717Q12.28414,23.113299687011718,12.352129999999999,23.173455687011717L19.0417,29.091756687011717Q19.1154,29.15701668701172,19.175,29.235416687011718Q19.2347,29.31381668701172,19.2778,29.40233668701172Q19.320999999999998,29.490856687011718,19.3461,29.586106687011718Q19.3712,29.681346687011718,19.377200000000002,29.77965668701172Q19.383200000000002,29.877966687011718,19.3699,29.975556687011718Q19.3566,30.073146687011718,19.3246,30.166276687011717Q19.2925,30.25939668701172,19.2429,30.34447668701172Q19.1933,30.42955668701172,19.128,30.503326687011718Q19.0576,30.58286668701172,18.972099999999998,30.64585668701172Q18.8866,30.708846687011718,18.7898,30.75246668701172Q18.692999999999998,30.79608668701172,18.589100000000002,30.81839668701172Q18.485300000000002,30.840706687011718,18.3791,30.84071668701172L14.92246,30.84087668701172L14.92237,28.84087668701172L18.378999999999998,28.84071668701172L18.378999999999998,29.84071668701172L17.7164,30.589676687011718L11.02691,24.67137768701172L11.68952,23.92241668701172L12.352129999999999,24.67137768701172L5.662614,30.589676687011718L5,29.84071668701172L5.000040725,28.84071668701172L8.922460000000001,28.84087668701172L8.92238,30.84087668701172ZM9.922419999999999,29.84087668701172Q9.922419999999999,29.93936668701172,9.9032,30.03596668701172Q9.88399,30.132566687011717,9.8463,30.22355668701172Q9.8086,30.31454668701172,9.75389,30.396446687011718Q9.699169999999999,30.47833668701172,9.62952,30.54797668701172Q9.55988,30.617626687011718,9.47799,30.672346687011718Q9.396090000000001,30.727056687011718,9.3051,30.76475668701172Q9.21411,30.802446687011717,9.11751,30.821656687011718Q9.02091,30.84087668701172,8.922419999999999,30.84087668701172Q8.823920000000001,30.84087668701172,8.72733,30.821656687011718Q8.63073,30.802446687011717,8.53973,30.76475668701172Q8.44874,30.727056687011718,8.36685,30.672346687011718Q8.28495,30.617626687011718,8.21531,30.54797668701172Q8.145669999999999,30.47833668701172,8.09095,30.396446687011718Q8.03623,30.31454668701172,7.99854,30.22355668701172Q7.960850000000001,30.132566687011717,7.94163,30.03596668701172Q7.92242,29.93936668701172,7.92242,29.84087668701172Q7.92242,29.742386687011717,7.94163,29.645786687011718Q7.960850000000001,29.54918668701172,7.99854,29.458186687011718Q8.03623,29.36719668701172,8.09095,29.28530668701172Q8.145669999999999,29.203406687011718,8.21531,29.13376668701172Q8.28495,29.06412668701172,8.36685,29.00940668701172Q8.44874,28.95468668701172,8.53973,28.916996687011718Q8.63073,28.87930668701172,8.72733,28.86008668701172Q8.823920000000001,28.84087668701172,8.922419999999999,28.84087668701172Q9.02091,28.84087668701172,9.11751,28.86008668701172Q9.21411,28.87930668701172,9.3051,28.916996687011718Q9.396090000000001,28.95468668701172,9.47799,29.00940668701172Q9.55988,29.06412668701172,9.62952,29.13376668701172Q9.699169999999999,29.203406687011718,9.75389,29.28530668701172Q9.8086,29.36719668701172,9.8463,29.458186687011718Q9.88399,29.54918668701172,9.9032,29.645786687011718Q9.922419999999999,29.742386687011717,9.922419999999999,29.84087668701172ZM15.9224,29.84087668701172Q15.9224,29.93936668701172,15.9032,30.03596668701172Q15.884,30.132566687011717,15.8463,30.22355668701172Q15.8086,30.31454668701172,15.7539,30.396446687011718Q15.6992,30.47833668701172,15.6295,30.54797668701172Q15.5599,30.617626687011718,15.478,30.672346687011718Q15.3961,30.727056687011718,15.3051,30.76475668701172Q15.2141,30.802446687011717,15.1175,30.821656687011718Q15.0209,30.84087668701172,14.92242,30.84087668701172Q14.82393,30.84087668701172,14.72733,30.821656687011718Q14.63073,30.802446687011717,14.53973,30.76475668701172Q14.44874,30.727056687011718,14.36685,30.672346687011718Q14.28495,30.617626687011718,14.21531,30.54797668701172Q14.14566,30.47833668701172,14.09094,30.396446687011718Q14.03623,30.31454668701172,13.99854,30.22355668701172Q13.96084,30.132566687011717,13.94163,30.03596668701172Q13.92242,29.93936668701172,13.92242,29.84087668701172Q13.92242,29.742386687011717,13.94163,29.645786687011718Q13.96084,29.54918668701172,13.99854,29.458186687011718Q14.03623,29.36719668701172,14.09094,29.28530668701172Q14.14566,29.203406687011718,14.21531,29.13376668701172Q14.28495,29.06412668701172,14.36685,29.00940668701172Q14.44874,28.95468668701172,14.53973,28.916996687011718Q14.63073,28.87930668701172,14.72733,28.86008668701172Q14.82393,28.84087668701172,14.92242,28.84087668701172Q15.0209,28.84087668701172,15.1175,28.86008668701172Q15.2141,28.87930668701172,15.3051,28.916996687011718Q15.3961,28.95468668701172,15.478,29.00940668701172Q15.5599,29.06412668701172,15.6295,29.13376668701172Q15.6992,29.203406687011718,15.7539,29.28530668701172Q15.8086,29.36719668701172,15.8463,29.458186687011718Q15.884,29.54918668701172,15.9032,29.645786687011718Q15.9224,29.742386687011717,15.9224,29.84087668701172Z"
                    fill-opacity="1" />
            </g>
            <g style="mix-blend-mode:passthrough">
                <rect x="13" y="7" width="5" height="2" rx="1" fill-opacity="1" />
            </g>
            <g style="mix-blend-mode:passthrough">
                <rect x="10" y="19" width="5" height="2" rx="1" fill-opacity="1" />
            </g>
            <g style="mix-blend-mode:passthrough">
                <path
                    d="M10,14C10,14.55228,10.447715,15,11,15L17,15C17.55228,15,18,14.55228,18,14C18,13.447715,17.55228,13,17,13L11,13C10.447715,13,10,13.447715,10,14Z"
                    fill-opacity="1" />
            </g>
        </g>
    </g>
</svg>