<svg xmlns="http://www.w3.org/2000/svg" xmlns:xlink="http://www.w3.org/1999/xlink" fill="none" version="1.1" width="21" height="23" viewBox="0 0 21 23"><g style="mix-blend-mode:passthrough"><g style="mix-blend-mode:passthrough"><ellipse cx="10.5" cy="18.5" rx="4.5" ry="4.5" fill="#FFFFFF" fill-opacity="1"/><ellipse cx="10.5" cy="18.5" rx="3.5" ry="3.5" fill-opacity="0" stroke-opacity="1" stroke="#2D3A2F" fill="none" stroke-width="2"/></g><g style="mix-blend-mode:passthrough"><path d="M17.9172,12.0246Q17.6923,10.2623,17.6923,8.5L17.6923,7.395C17.6923,3.30243,14.3746,0,10.2821,0C6.18948,0,2.87179,3.28769,2.87179,7.38027L2.87179,8.5Q2.87179,10.294,2.71645,12.088C1.16069,12.4438,0,13.8364,0,15.5C0,17.433,1.567,19,3.5,19L17.5,19C19.433,19,21,17.433,21,15.5C21,13.7082,19.6535,12.2308,17.9172,12.0246Z" fill-rule="evenodd" fill="#FFFFFF" fill-opacity="1"/><path d="M17.9172,12.0246Q17.6923,10.2623,17.6923,8.5L17.6923,7.395C17.6923,3.30243,14.3746,0,10.2821,0C6.18948,0,2.87179,3.28769,2.87179,7.38027L2.87179,8.5Q2.87179,10.294,2.71645,12.088C1.16069,12.4438,0,13.8364,0,15.5C0,17.433,1.567,19,3.5,19L17.5,19C19.433,19,21,17.433,21,15.5C21,13.7082,19.6535,12.2308,17.9172,12.0246ZM15.6923,8.5Q15.6923,10.3894,15.9332,12.2777Q15.9543,12.4425,16.0022,12.6015Q16.0501,12.7605,16.1236,12.9095Q16.1971,13.0584,16.2941,13.1932Q16.3912,13.328,16.5091,13.445Q16.6271,13.5619,16.7627,13.6578Q16.8983,13.7536,17.0479,13.8258Q17.1975,13.898,17.3569,13.9445Q17.5164,13.9911,17.6813,14.0106Q18.2398,14.077,18.6189,14.5009Q19,14.9271,19,15.5Q19,16.1213,18.5607,16.5607Q18.1213,17,17.5,17L3.5,17Q2.87868,17,2.43934,16.5607Q2,16.1213,2,15.5Q2,14.9701,2.33124,14.5596Q2.65961,14.1527,3.16234,14.0377Q3.31614,14.0025,3.46253,13.9437Q3.60891,13.8848,3.74426,13.8037Q3.87961,13.7227,4.00057,13.6214Q4.12153,13.5201,4.22511,13.401Q4.32868,13.282,4.41232,13.1482Q4.49596,13.0145,4.55758,12.8692Q4.61921,12.724,4.6573,12.5709Q4.69538,12.4178,4.709,12.2606Q4.87179,10.3805,4.87179,8.5L4.87179,7.38027Q4.87179,5.14541,6.45245,3.57359Q8.03489,2,10.282,2Q12.5262,2,14.1097,3.57901Q15.6923,5.15712,15.6923,7.395L15.6923,8.5Z" fill-rule="evenodd" fill="#2D3A2F" fill-opacity="1"/></g></g></svg>